PathFileType	4	(X/Y/Z)	C:\Users\WrightLab\Desktop\Jo\P5V47.trc
DataRate	CameraRate	NumFrames	NumMarkers	Units	OrigDataRate	OrigDataStartFrame	OrigNumFrames
100.00	100.00	       32	19	mm	100.00	1	       892
Frame#	Time	Headset_Front			Headset_Back			Headset_Left			Headset_Right			Left_Shoulder			Right_Shoulder			Sternum			C7			Left Elbow			Right Elbow			Left Wrist			Right Wrist			Left ASIS			Right ASIS			S2			Left Knee			Right Knee			Left Ankle			Right Ankle			
		X1	Y1	Z1	X2	Y2	Z2	X3	Y3	Z3	X4	Y4	Z4	X5	Y5	Z5	X6	Y6	Z6	X7	Y7	Z7	X8	Y8	Z8	X9	Y9	Z9	X10	Y10	Z10	X11	Y11	Z11	X12	Y12	Z12	X13	Y13	Z13	X14	Y14	Z14	X15	Y15	Z15	X16	Y16	Z16	X17	Y17	Z17	X18	Y18	Z18	X19	Y19	Z19	

1	0.000																												-457.21310	1158.98706	-1026.20740				-306.99997	1061.32056	-868.14636	-380.39908	473.14120	-1039.53772	-341.72903	937.10046	-1012.59283				-10.46793	486.62048	-1111.15210										
2	0.010																												-457.20697	1158.98987	-1026.20459				-307.00241	1061.32190	-868.14777	-379.93655	472.87915	-1039.80029	-341.70612	937.11133	-1012.58569				-10.92304	486.07590	-1111.65784										
3	0.020																												-457.20370	1158.99133	-1026.20313				-306.99670	1061.31885	-868.14447	-380.33084	473.42422	-1039.89978	-341.26321	936.95313	-1012.40637				-11.00467	485.87711	-1111.87085										
4	0.030																												-457.19870	1158.99353	-1026.20093				-307.27188	1061.47754	-867.94757	-380.26346	473.50009	-1040.30774	-341.53860	937.30707	-1012.51825				-11.23957	485.88174	-1112.05908										
5	0.040																												-457.08334	1159.10779	-1026.14417				-307.06528	1061.26184	-868.04663	-379.30289	472.65164	-1040.98840	-341.53204	937.38940	-1012.81842				-11.60548	485.69931	-1112.54041										
6	0.050																												-457.07916	1159.10962	-1026.14233				-307.33469	1061.41748	-867.84644	-380.38065	473.61011	-1041.29321	-341.49734	937.38458	-1012.80542				-11.63494	485.69528	-1112.55200										
7	0.060																												-456.76266	1159.47668	-1026.18921				-307.31186	1061.56970	-867.49890	-380.06140	473.48181	-1041.66003	-341.53262	937.41376	-1012.82098				-11.65824	485.70038	-1112.56372										
8	0.070																												-456.83337	1159.34155	-1025.90625				-307.35147	1061.52356	-867.42010	-379.62216	472.93866	-1041.68628	-341.54230	937.42853	-1012.82593				-11.59599	485.57501	-1112.62244										
9	0.080																												-456.41034	1159.29688	-1025.85327				-307.35431	1061.52502	-867.42175	-380.42484	473.62244	-1041.31519	-341.09042	937.71240	-1013.59155				-11.76335	485.50204	-1112.86206										
10	0.090																												-456.39938	1159.32544	-1025.99084				-307.21432	1061.67212	-867.25647	-380.11111	473.90842	-1042.29004	-341.05209	937.25671	-1013.22443				-11.83209	485.39230	-1113.05017										
11	0.100																												-456.29730	1159.50818	-1026.38586				-307.19943	1061.66418	-867.24786	-380.18094	473.90146	-1041.80029	-341.63577	937.42950	-1013.39209				-11.98306	485.31555	-1113.26233										
12	0.110																												-456.13486	1159.66235	-1026.20898				-306.93893	1061.07178	-867.38947	-380.23328	473.72018	-1041.75208	-341.34946	937.80713	-1014.03052				-11.55561	485.14404	-1113.70740										
13	0.120																												-456.13486	1159.66235	-1026.20898				-307.33926	1061.51697	-867.41302	-380.90277	474.28891	-1041.44275	-341.31445	937.66199	-1014.25281				-11.73552	485.22336	-1113.86182										
14	0.130																												-456.13486	1159.66235	-1026.20898				-306.93399	1061.06909	-867.38660	-379.81845	473.18176	-1041.79016	-341.46686	937.82373	-1014.31378				-11.74582	485.24072	-1113.87158										
15	0.140																												-456.13486	1159.66235	-1026.20898				-307.24368	1061.27515	-867.18378	-380.77859	473.70145	-1041.52356	-341.15012	937.86877	-1014.63989				-11.63942	485.24655	-1114.55945										
16	0.150																												-456.02197	1159.76343	-1026.03601				-307.33575	1061.51440	-867.41095	-381.17932	474.14319	-1041.60449	-340.62482	937.60779	-1014.81622				-11.45987	485.33124	-1115.29578										
17	0.160																												-456.02197	1159.76343	-1026.03601				-307.29413	1061.50916	-867.16986	-381.78665	474.15918	-1041.62646	-340.63223	937.60858	-1014.81897				-10.79331	485.98520	-1116.38989										
18	0.170																												-455.91998	1160.07495	-1026.09912				-307.22028	1061.27661	-866.95300	-381.31161	473.49759	-1042.23596	-340.82779	937.50470	-1015.08710				-11.02026	485.66483	-1116.88953										
19	0.180																												-455.91998	1160.07495	-1026.09912				-307.06589	1061.40723	-866.79260	-382.51187	474.05896	-1042.20679	-340.80875	937.49982	-1015.07977				-11.19251	485.55203	-1117.16272										
20	0.190																												-455.91998	1160.07495	-1026.09912				-307.15323	1061.64063	-867.01660	-382.60635	474.06287	-1042.25073	-340.31604	937.56622	-1015.47522				-11.41126	485.49747	-1117.40906										
21	0.200																												-455.99063	1159.93994	-1025.81616				-307.20956	1061.26404	-866.94598	-382.38248	473.90689	-1042.60522	-340.40356	937.47369	-1015.75305				-11.29963	485.09155	-1117.81396										
22	0.210																												-455.91998	1160.07495	-1026.09912				-307.18884	1061.24829	-866.93347	-382.13776	473.51526	-1042.65527	-340.41135	937.45599	-1015.96960				-11.00260	485.29898	-1117.83093										
23	0.220																												-455.91998	1160.07495	-1026.09912				-306.87369	1061.03406	-867.13251	-382.56210	473.90991	-1042.68811	-340.65005	937.77606	-1016.08429				-11.21091	485.08191	-1118.21094										
24	0.230																												-455.91998	1160.07495	-1026.09912				-306.94766	1060.92053	-867.07074	-382.80008	473.77335	-1043.01282	-340.55493	937.89636	-1016.14911				-11.55370	484.91193	-1118.66675										
25	0.240																												-455.80148	1160.18042	-1025.93860				-307.24582	1061.10669	-866.85974	-383.27628	474.07874	-1043.24670	-340.25070	937.60492	-1016.18372				-11.36671	485.17316	-1118.70239										
26	0.250																												-455.55807	1160.31067	-1026.01563				-307.23697	1061.06201	-866.66443	-383.33228	474.07932	-1043.27246	-340.22922	937.58966	-1016.17450				-11.25853	484.91055	-1118.95569										
27	0.260																												-455.29059	1160.08984	-1025.64392				-306.90344	1060.84888	-866.85400	-383.38565	474.09540	-1043.29907	-340.31784	937.51990	-1016.40540				-11.59329	484.71222	-1119.40808										
28	0.270																												-455.27039	1160.09912	-1025.63477				-306.88062	1060.83276	-866.84033	-383.42828	474.09106	-1043.31812	-340.26886	937.88281	-1016.78619				-11.84483	484.67761	-1119.64050										
29	0.280																												-454.63498	1159.93652	-1025.75330				-307.00858	1060.66821	-866.89362	-383.45905	474.10571	-1043.33411	-340.23499	937.50146	-1016.37378				-11.60970	485.01035	-1120.04675										
30	0.290																												-454.92453	1160.18127	-1025.59937				-306.47659	1060.53186	-866.56738	-383.16641	474.14944	-1043.33911	-340.54648	938.13818	-1016.72327				-11.67440	484.78922	-1120.02051										
31	0.300																												-454.68066	1160.40076	-1025.48389				-306.69254	1060.88721	-866.32214	-383.17200	474.14771	-1043.34155	-339.75830	937.85443	-1017.10419				-11.70682	484.79117	-1120.03528										
32	0.310																												-453.81638	1160.10303	-1025.39087				-306.55673	1060.96521	-866.05255	-383.14502	474.15808	-1043.33057	-339.55530	937.19763	-1016.52313				-11.69840	484.97879	-1120.07593										
